<svg xmlns="http://www.w3.org/2000/svg" version="1.0" width="512.000000pt" height="512.000000pt" viewBox="0 0 512.000000 512.000000" preserveAspectRatio="xMidYMid meet">
	<metadata>
		Created by potrace 1.14, written by Peter Selinger 2001-2017
	</metadata>
	<g transform="translate(0.000000,512.000000) scale(0.100000,-0.100000)" fill="#000000" stroke="none">
		<path d="M0 4270 l0 -850 850 0 850 0 0 -430 0 -430 -425 0 -425 0 0 -1280 0 -1280 425 0 425 0 0 430 0 430 855 0 855 0 0 -430 0 -430 425 0 425 0 0 1280 0 1280 -425 0 -425 0 0 430 0 430 855 0 855 0 0 850 0 850 -855 0 -855 0 0 -850 0 -850 -855 0 -855 0 0 850 0 850 -850 0 -850 0 0 -850z"/>
	</g>
</svg>